<svg width="300" height="200" viewBox="0 0 300 200" fill="none" xmlns="http://www.w3.org/2000/svg">
<rect width="300" height="200" fill="white"/>
<g clip-path="url(#clip0)">
<path d="M99.8646 142.917C97.1732 142.527 94.6296 140.817 93.2269 138.453C92.3582 136.99 91.5449 134.647 92.6035 131.798C94.2185 127.449 96.5349 124.222 98.7754 121.101C102.604 115.766 106.564 110.251 106.584 100.01C106.602 90.7675 101.021 81.4163 92.6978 76.7411C87.3046 73.7114 81.5663 73.1735 76.5445 75.1409C76.1732 74.5274 75.7661 73.8477 75.3212 73.0979C74.2216 71.2446 72.1325 70.2415 69.9981 70.5413C67.8622 70.8421 66.129 72.385 65.5829 74.4724C65.503 74.7774 65.428 75.0595 65.3565 75.3265C65.3462 75.3132 65.3364 75.3009 65.3259 75.2874C64.2884 73.964 62.7599 72.0434 60.7825 69.579C57.4348 65.4065 52.7393 59.5985 46.8268 52.3161C44.7639 49.775 41.2983 49.2608 38.5858 51.0911C35.8733 52.9221 35.0553 56.329 36.6403 59.1921L49.1208 81.7364C48.678 82.2054 48.2463 82.6761 47.8204 83.1423C44.0182 87.3056 41.2709 90.314 33.1319 88.3466C32.0586 88.0866 30.9291 88.4368 30.1901 89.2573C29.4508 90.078 29.2207 91.2376 29.5908 92.2782C30.4606 94.7247 34.7985 100.538 42.3563 102.885C40.8891 105.014 39.3791 107.101 38.3577 108.248L38.1543 108.476C34.9196 112.103 32.3643 114.967 32.4668 118.475C32.5715 122.032 34.2412 127.31 38.6028 130.476C41.1383 132.317 44.1827 133.238 47.7026 133.238C50.0139 133.238 52.5307 132.841 55.2421 132.045C56.9796 131.535 58.5495 130.938 59.9347 130.412C61.7036 129.74 63.2317 129.159 64.4845 128.987C68.6513 128.412 71.647 127.505 73.8351 126.49C73.6819 127.956 73.5591 129.489 73.4907 131.096C73.1946 138.049 75.1556 143.22 79.3189 146.465C82.8648 149.229 87.3775 150 91.3099 150C96.083 150 100.001 148.864 100.293 148.777C101.646 148.374 102.538 147.084 102.435 145.675C102.331 144.267 101.262 143.119 99.8646 142.917ZM41.903 56.2782C41.8743 56.2264 41.8602 56.1901 41.8534 56.1686C41.894 56.1085 42.001 56.0364 42.0719 56.0211C42.0891 56.0354 42.1178 56.0624 42.1551 56.1085C55.0911 72.0421 59.7597 77.9089 61.3505 79.9722C60.4538 82.0179 58.3237 82.8507 56.8005 83.1886L41.903 56.2782ZM39.562 94.8697C45.7928 94.2318 49.2614 90.4849 52.1891 87.28L52.5231 87.8835C53.0536 88.8417 54.062 89.4347 55.1548 89.4347C55.1694 89.4347 55.1845 89.4345 55.1993 89.4343C57.1571 89.4056 60.1331 88.8183 62.7032 87.1841C62.7593 89.297 63.2089 91.2566 64.0522 93.0349C62.16 95.0474 58.5641 97.8781 49.1155 97.8783C45.0202 97.8784 41.8391 96.4781 39.562 94.8697ZM76.5847 110.704C76.0577 112.891 75.5155 115.146 75.0915 117.618C75.0892 117.631 75.0857 117.644 75.0833 117.657C74.97 117.817 74.8655 117.976 74.7657 118.127C73.911 119.422 72.32 121.834 63.6622 123.027C61.7323 123.293 59.8208 124.019 57.7966 124.788C56.4511 125.299 55.0598 125.828 53.5462 126.272C48.5876 127.728 44.7487 127.504 42.136 125.607C39.3602 123.592 38.5315 120.064 38.4795 118.298C38.4471 117.185 40.6762 114.686 42.6428 112.481L42.8483 112.251C44.3997 110.509 46.9268 106.913 48.9532 103.893C49.0073 103.893 49.0606 103.895 49.1151 103.895C54.8028 103.894 59.5567 102.942 63.2444 101.064C66.4851 99.4134 68.2247 97.4234 69.264 96.2341C69.4552 96.0156 69.6929 95.7433 69.7837 95.6615C70.9228 94.6329 71.1048 92.9114 70.2063 91.6675C69.2202 90.3023 68.7308 88.73 68.7097 86.8605C68.6897 85.1239 69.0983 83.1259 69.8913 81.0821C70.1784 80.3417 70.5378 79.1843 70.9819 77.5681C71.7478 78.8433 72.386 79.8815 72.8859 80.6653C74.431 83.0864 76.0175 86.7386 75.8493 89.0384C75.7839 89.9466 75.5696 90.8587 75.2126 91.7491C74.8148 92.7411 74.9732 93.8695 75.6284 94.7136C79.1359 99.2316 78.3683 103.304 76.5847 110.704ZM88.0531 141.524C88.5662 142.389 89.1626 143.195 89.8294 143.935C87.3408 143.769 84.8492 143.154 83.0048 141.711C80.4712 139.729 79.2921 136.244 79.5003 131.353C79.679 127.159 80.2698 123.387 80.7911 120.06L80.8923 119.413C81.2948 116.839 81.8738 114.437 82.4337 112.114C84.0663 105.34 85.6146 98.9183 81.3443 92.374C81.6107 91.4175 81.78 90.447 81.8501 89.4738C82.0804 86.3204 80.7993 82.8712 79.6238 80.4407C79.6228 80.4386 79.622 80.436 79.6208 80.4339C83.7368 79.2114 87.6017 80.7798 89.7507 81.9868C96.1326 85.5716 100.58 92.9784 100.567 99.9986C100.551 108.31 97.4628 112.612 93.8873 117.593C91.5304 120.876 88.8593 124.598 86.963 129.703C85.4919 133.664 85.8792 137.862 88.0531 141.524Z" fill="black"/>
<path d="M66.0108 102C64.4373 102 62.9297 103.384 63.0025 105.008C63.0756 106.638 64.3244 108.016 66.0108 108.016C67.5842 108.016 69.0918 106.633 69.019 105.008C68.9459 103.378 67.6973 102 66.0108 102Z" fill="black"/>
<line x1="58.8981" y1="72.627" x2="52.8981" y2="79.627" stroke="black" stroke-width="5"/>
<line x1="53.8981" y1="63.627" x2="47.8981" y2="70.627" stroke="black" stroke-width="5"/>
</g>
<path d="M150.374 131C149.521 131 148.881 130.84 148.454 130.52C148.081 130.2 147.894 129.667 147.894 128.92V118.44C147.201 117.96 145.894 117.533 143.974 117.16C142.054 116.787 140.241 116.547 138.534 116.44C137.948 117.56 137.521 118.92 137.254 120.52L136.934 122.12C136.881 122.493 136.721 123.32 136.454 124.6C136.188 125.88 135.894 127 135.574 127.96C135.254 128.867 134.934 129.587 134.614 130.12C132.588 130.12 131.414 129.587 131.094 128.52C131.681 127.667 132.348 125.16 133.094 121L135.734 106.36C136.908 99.4267 137.974 93.5067 138.934 88.6C139.948 83.6933 141.014 79.5867 142.134 76.28C143.361 72.6 144.534 70.76 145.654 70.76C146.774 70.76 147.628 70.9733 148.214 71.4C148.214 73.5333 148.721 78.68 149.734 86.84C150.801 94.84 151.334 100.307 151.334 103.24C151.334 106.067 151.628 110.12 152.214 115.4C152.748 120.787 153.014 125.08 153.014 128.28C153.014 130.093 152.134 131 150.374 131ZM146.214 113.8C146.641 113.8 147.174 113.72 147.814 113.56C147.654 111.213 147.388 108.307 147.014 104.84C145.788 92.7867 145.174 85.4 145.174 82.68V82.04C144.641 82.5733 143.894 85 142.934 89.32C142.028 93.5867 141.174 98.1733 140.374 103.08C139.574 107.987 139.148 111.24 139.094 112.84C141.334 113.48 143.708 113.8 146.214 113.8ZM174.903 132.28C172.983 131.64 170.61 131.32 167.783 131.32C166.93 131.853 166.023 132.12 165.063 132.12C164.423 132.12 163.863 131.827 163.383 131.24C162.956 130.707 162.743 130.12 162.743 129.48C162.743 125 162.93 119.027 163.303 111.56C163.623 103.613 163.783 97.6667 163.783 93.72V93.16C163.463 89.8 163.303 87.2933 163.303 85.64C163.303 80.5733 164.236 78.04 166.103 78.04C166.636 78.04 167.09 78.2533 167.463 78.68C167.89 79.0533 168.103 79.5067 168.103 80.04C168.103 80.68 168.023 81.6933 167.863 83.08C167.703 84.4133 167.623 85.4267 167.623 86.12C167.623 89.6933 167.65 92.92 167.703 95.8C167.756 98.6267 167.783 101.827 167.783 105.4C167.516 106.2 167.383 107.32 167.383 108.76V109.72L167.223 116.04C167.116 117.907 167.063 120.04 167.063 122.44C167.063 126.12 167.943 127.96 169.703 127.96C169.81 127.96 169.97 127.96 170.183 127.96C170.45 127.907 170.796 127.88 171.223 127.88C171.703 127.827 172.316 127.8 173.063 127.8C175.943 127.8 177.383 128.6 177.383 130.2C177.383 130.733 177.143 131.187 176.663 131.56C176.183 131.933 175.596 132.173 174.903 132.28ZM188.469 129.72L188.389 126.6C188.336 125.693 188.309 124.68 188.309 123.56L188.389 120.84C188.229 120.253 187.829 114.413 187.189 103.32C186.549 92.2267 186.176 85.1067 186.069 81.96C182.976 81.8533 181.003 81.5333 180.149 81C179.563 80.5733 179.269 80.0933 179.269 79.56C179.269 79.1333 179.536 78.76 180.069 78.44C180.656 78.0667 181.243 77.88 181.829 77.88C183.323 77.88 185.136 77.9867 187.269 78.2C189.296 78.4667 191.109 78.6 192.709 78.6H193.349H193.989C195.643 78.6 196.469 79.24 196.469 80.52C196.469 81.16 196.203 81.6933 195.669 82.12C195.136 82.4933 194.523 82.68 193.829 82.68C193.349 82.68 192.656 82.6 191.749 82.44L190.149 82.12L190.069 82.52L189.989 82.92C189.989 87.6667 190.443 95.24 191.349 105.64C192.203 115.4 192.629 122.973 192.629 128.36C192.629 129 192.336 129.56 191.749 130.04C191.216 130.52 190.603 130.76 189.909 130.76L188.469 129.72ZM208.138 132.04C207.445 132.04 206.805 131.8 206.218 131.32C205.685 130.84 205.391 130.253 205.338 129.56V127.48V125.88C205.285 125.4 205.258 124.84 205.258 124.2C205.258 123.08 205.178 121.373 205.018 119.08L204.858 113.96C204.858 111.347 204.938 107.453 205.098 102.28C205.311 97.64 205.418 93.7467 205.418 90.6C205.418 89.8533 205.338 88.7333 205.178 87.24C205.018 85.6933 204.938 84.5733 204.938 83.88C204.938 80.0933 206.058 78.2 208.298 78.2C210.058 78.2 212.085 78.5467 214.378 79.24C216.725 79.9333 217.898 80.76 217.898 81.72C217.898 82.2533 217.658 82.76 217.178 83.24C216.751 83.6667 216.218 84.0133 215.578 84.28C213.338 83.48 211.311 82.9467 209.498 82.68C209.551 83.48 209.578 84.6267 209.578 86.12C209.578 88.2533 209.551 90.1733 209.498 91.88C209.338 94.44 209.258 96.36 209.258 97.64L209.498 98.92L210.778 98.84C211.205 98.7867 211.738 98.76 212.378 98.76C214.938 98.76 216.218 99.5067 216.218 101C216.218 101.587 215.978 102.093 215.498 102.52C215.018 102.893 214.405 103.08 213.658 103.08C212.698 103.08 211.951 103.027 211.418 102.92H209.418C209.525 104.307 209.578 106.333 209.578 109C209.578 111.667 209.551 114.067 209.498 116.2C209.338 119.453 209.258 121.88 209.258 123.48C209.258 126.467 209.311 127.96 209.418 127.96L212.058 127.88C212.965 127.827 214.058 127.8 215.338 127.8C217.365 127.8 218.378 128.44 218.378 129.72C218.378 130.467 218.031 131.027 217.338 131.4C216.698 131.827 215.898 132.04 214.938 132.04H208.138ZM241.193 132.36C240.019 132.36 238.953 131.08 237.993 128.52C236.873 125.747 236.046 122.893 235.513 119.96L234.953 117.24C233.406 109.613 232.419 105.267 231.993 104.2H231.033C231.033 105.747 231.006 107.16 230.953 108.44V112.84C230.953 119.987 231.459 125.56 232.473 129.56L231.593 131.72H229.353L228.313 130.52L228.393 125.16C228.393 120.36 228.153 113.08 227.673 103.32C227.246 92.92 227.033 85.64 227.033 81.48C227.033 78.92 227.913 77.64 229.673 77.64C232.553 77.64 234.899 78.3867 236.713 79.88C238.579 81.3733 239.513 83.4533 239.513 86.12V91.72C239.513 92.52 239.379 93.4533 239.113 94.52C238.846 95.5333 238.553 96.36 238.233 97L236.713 99.88L235.433 102.28L235.833 104.2L236.953 109.88C237.699 113.987 238.419 117.32 239.113 119.88C239.806 122.44 240.659 124.76 241.673 126.84L242.153 127.8C242.686 128.867 242.953 129.72 242.953 130.36C242.953 130.893 242.793 131.347 242.473 131.72C242.153 132.147 241.726 132.36 241.193 132.36ZM231.353 100.28C232.526 99.6933 233.513 98.0933 234.313 95.48C235.166 92.8133 235.593 90.36 235.593 88.12C235.593 86.4133 235.379 84.8133 234.953 83.32C234.686 82.4667 234.233 81.8267 233.593 81.4C233.006 80.92 232.259 80.68 231.353 80.68L231.193 81.08L231.033 81.8L231.193 91.24C231.299 94.0133 231.353 97.0267 231.353 100.28ZM251.986 131.16C251.4 131.16 250.893 131 250.466 130.68C250.04 130.307 249.826 129.853 249.826 129.32C249.826 126.12 250.44 121.907 251.666 116.68C252.946 111.453 254.786 105 257.186 97.32C259.586 89.3733 261.08 84.2533 261.666 81.96C261.026 81.96 259.986 82.04 258.546 82.2C257.106 82.36 255.96 82.44 255.106 82.44C254.573 82.44 254.093 82.2267 253.666 81.8C253.24 81.32 253.026 80.7867 253.026 80.2C253.026 78.6533 255.96 77.88 261.826 77.88C264.493 77.88 265.826 78.6267 265.826 80.12C265.826 81.8267 265.24 84.36 264.066 87.72C262.946 90.7067 262.253 92.9733 261.986 94.52C261.453 98.3067 260.066 104.493 257.826 113.08L254.306 126.92H255.746L257.426 126.76C257.906 126.707 258.466 126.68 259.106 126.68V126.6C261.24 126.6 262.306 127.267 262.306 128.6C262.306 129.187 262.04 129.667 261.506 130.04C260.973 130.36 260.306 130.52 259.506 130.52C258.653 130.52 257.88 130.493 257.186 130.44L254.786 130.28C254.466 130.28 254.013 130.44 253.426 130.76C252.733 131.027 252.253 131.16 251.986 131.16Z" fill="black"/>
<defs>
<clipPath id="clip0">
<rect width="100" height="100" fill="white" transform="translate(18 50)"/>
</clipPath>
</defs>
</svg>
